<svg xmlns="http://www.w3.org/2000/svg" viewBox="0 0 1800 760" preserveAspectRatio="xMidYMid slice">
  <defs>
    <linearGradient id="mid" x1="0" x2="0" y1="0" y2="1">
      <stop offset="0" stop-color="#162514"/>
      <stop offset="0.45" stop-color="#0a0f09"/>
      <stop offset="1" stop-color="#10170f"/>
    </linearGradient>
    <radialGradient id="light" cx="58%" cy="44%" r="40%">
      <stop offset="0" stop-color="#b9c9a4" stop-opacity="0.18"/>
      <stop offset="0.42" stop-color="#556b45" stop-opacity="0.12"/>
      <stop offset="1" stop-color="#000000" stop-opacity="0"/>
    </radialGradient>
  </defs>
  <rect width="1800" height="760" fill="url(#mid)"/>
  <rect width="1800" height="760" fill="url(#light)"/>
  <g shape-rendering="crispEdges">
    <rect x="0" y="0" width="1800" height="120" fill="#142411"/>
    <rect x="0" y="620" width="1800" height="140" fill="#0b100a"/>
    <rect x="30" y="0" width="78" height="760" fill="#080c07"/>
    <rect x="185" y="60" width="54" height="700" fill="#11190f"/>
    <rect x="360" y="0" width="92" height="760" fill="#060906"/>
    <rect x="570" y="120" width="64" height="640" fill="#10170e"/>
    <rect x="780" y="0" width="72" height="760" fill="#070a06"/>
    <rect x="1020" y="70" width="84" height="690" fill="#0d130c"/>
    <rect x="1240" y="0" width="58" height="760" fill="#060906"/>
    <rect x="1485" y="85" width="92" height="675" fill="#0f160d"/>
    <rect x="1700" y="0" width="72" height="760" fill="#070a06"/>
    <rect x="920" y="332" width="44" height="128" fill="#070907"/>
    <rect x="906" y="314" width="72" height="48" fill="#070907"/>
    <rect x="918" y="330" width="12" height="10" fill="#f4f8ef"/>
    <rect x="954" y="330" width="12" height="10" fill="#f4f8ef"/>
    <rect x="770" y="590" width="420" height="24" fill="#1c2b17" opacity="0.75"/>
    <rect x="650" y="628" width="600" height="24" fill="#20351b" opacity="0.45"/>
  </g>
</svg>
