<svg xmlns="http://www.w3.org/2000/svg" viewBox="0 0 1800 760" preserveAspectRatio="xMidYMid slice">
  <defs>
    <linearGradient id="ground" x1="0" x2="0" y1="0" y2="1">
      <stop offset="0" stop-color="#10170f"/>
      <stop offset="0.42" stop-color="#0a0f09"/>
      <stop offset="1" stop-color="#030503"/>
    </linearGradient>
    <linearGradient id="mist" x1="0" x2="1" y1="0" y2="0">
      <stop offset="0" stop-color="#dbe7cf" stop-opacity="0"/>
      <stop offset="0.5" stop-color="#dbe7cf" stop-opacity="0.12"/>
      <stop offset="1" stop-color="#dbe7cf" stop-opacity="0"/>
    </linearGradient>
  </defs>
  <rect width="1800" height="760" fill="url(#ground)"/>
  <rect x="0" y="80" width="1800" height="200" fill="url(#mist)"/>
  <g shape-rendering="crispEdges">
    <rect x="0" y="0" width="1800" height="130" fill="#0c120b"/>
    <rect x="0" y="520" width="1800" height="240" fill="#050805"/>
    <rect x="420" y="420" width="960" height="340" fill="#10180e"/>
    <rect x="540" y="480" width="720" height="280" fill="#162114"/>
    <rect x="680" y="552" width="440" height="208" fill="#1f2e1a"/>
    <rect x="0" y="360" width="300" height="400" fill="#091008"/>
    <rect x="1500" y="330" width="300" height="430" fill="#090f08"/>
    <rect x="110" y="120" width="70" height="640" fill="#060906"/>
    <rect x="310" y="70" width="58" height="690" fill="#0f160d"/>
    <rect x="1425" y="80" width="74" height="680" fill="#0e150c"/>
    <rect x="1630" y="135" width="58" height="625" fill="#070a06"/>
    <rect x="760" y="590" width="280" height="18" fill="#c79a48" opacity="0.2"/>
    <rect x="840" y="640" width="120" height="12" fill="#c79a48" opacity="0.16"/>
  </g>
</svg>
