<svg xmlns="http://www.w3.org/2000/svg" viewBox="0 0 1800 2280" preserveAspectRatio="xMidYMid slice">
  <defs>
    <linearGradient id="sky" x1="0" x2="0" y1="0" y2="1">
      <stop offset="0" stop-color="#060606"/>
      <stop offset="0.22" stop-color="#101012"/>
      <stop offset="0.5" stop-color="#0b0b0c"/>
      <stop offset="1" stop-color="#050505"/>
    </linearGradient>
    <linearGradient id="river" x1="0" x2="0" y1="0" y2="1">
      <stop offset="0" stop-color="#22262d" stop-opacity="0.36"/>
      <stop offset="0.48" stop-color="#14171c" stop-opacity="0.62"/>
      <stop offset="1" stop-color="#08090d" stop-opacity="0.92"/>
    </linearGradient>
    <radialGradient id="torchGlow" cx="50%" cy="74%" r="22%">
      <stop offset="0" stop-color="#8a1821" stop-opacity="0.38"/>
      <stop offset="0.35" stop-color="#681017" stop-opacity="0.18"/>
      <stop offset="1" stop-color="#050505" stop-opacity="0"/>
    </radialGradient>
    <filter id="fog">
      <feTurbulence baseFrequency="0.018 0.052" numOctaves="2" seed="37"/>
      <feColorMatrix type="saturate" values="0"/>
      <feComponentTransfer>
        <feFuncA type="table" tableValues="0 0.09"/>
      </feComponentTransfer>
    </filter>
  </defs>
  <rect width="1800" height="2280" fill="url(#sky)"/>
  <rect width="1800" height="2280" filter="url(#fog)" opacity="0.9"/>
  <g shape-rendering="crispEdges">
    <rect x="0" y="420" width="1800" height="210" fill="#151517"/>
    <rect x="0" y="610" width="1800" height="180" fill="#0c0c0e"/>
    <rect x="80" y="320" width="190" height="360" fill="#16171a"/>
    <rect x="290" y="250" width="260" height="450" fill="#0b0b0c"/>
    <rect x="650" y="180" width="290" height="590" fill="#141416"/>
    <rect x="1050" y="240" width="260" height="560" fill="#0d0d0f"/>
    <rect x="1390" y="300" width="330" height="470" fill="#151517"/>
    <rect x="138" y="650" width="64" height="870" fill="#070707"/>
    <rect x="410" y="560" width="72" height="940" fill="#09090a"/>
    <rect x="780" y="520" width="86" height="1060" fill="#060606"/>
    <rect x="1180" y="570" width="80" height="1000" fill="#080808"/>
    <rect x="1560" y="610" width="76" height="930" fill="#070707"/>
  </g>
  <g shape-rendering="crispEdges">
    <path d="M720 700 L930 700 L1040 1080 L990 1500 L1130 2280 L650 2280 L750 1520 L690 1080 Z" fill="url(#river)"/>
    <path d="M780 740 L910 740 L940 1050 L900 1390 L960 1970 L805 1970 L845 1390 L800 1060 Z" fill="#232833" opacity="0.18"/>
    <rect x="0" y="760" width="1800" height="90" fill="#b9b9bd" opacity="0.035"/>
    <rect x="0" y="1020" width="1800" height="120" fill="#b9b9bd" opacity="0.05"/>
    <rect x="0" y="1320" width="1800" height="130" fill="#b9b9bd" opacity="0.045"/>
  </g>
  <g shape-rendering="crispEdges">
    <rect x="875" y="870" width="70" height="42" fill="#050505"/>
    <rect x="858" y="912" width="104" height="88" fill="#050505"/>
    <rect x="886" y="900" width="14" height="10" fill="#ededed" opacity="0.76"/>
    <rect x="928" y="900" width="14" height="10" fill="#ededed" opacity="0.76"/>
    <rect x="887" y="1000" width="58" height="220" fill="#050505"/>
  </g>
  <rect width="1800" height="2280" fill="url(#torchGlow)"/>
  <g shape-rendering="crispEdges">
    <rect x="888" y="1680" width="24" height="180" fill="#21181a"/>
    <rect x="866" y="1628" width="68" height="58" fill="#42090d"/>
    <rect x="880" y="1640" width="40" height="28" fill="#8a1821"/>
    <rect x="890" y="1648" width="20" height="12" fill="#b08b3e" opacity="0.58"/>
    <rect x="620" y="1780" width="560" height="34" fill="#141416"/>
    <rect x="540" y="1838" width="720" height="38" fill="#0b0b0c"/>
  </g>
  <g shape-rendering="crispEdges">
    <rect x="0" y="1500" width="330" height="780" fill="#070707"/>
    <rect x="1480" y="1460" width="320" height="820" fill="#060606"/>
    <rect x="260" y="1660" width="190" height="620" fill="#0d0d0f"/>
    <rect x="1260" y="1620" width="230" height="660" fill="#0b0b0c"/>
  </g>
  <rect x="0" y="735" width="1800" height="80" fill="#050505" opacity="0.24"/>
  <rect x="0" y="1490" width="1800" height="100" fill="#050505" opacity="0.3"/>
</svg>
