<svg xmlns="http://www.w3.org/2000/svg" viewBox="0 0 1200 630" preserveAspectRatio="xMidYMid slice">
  <rect width="1200" height="630" fill="#050505"/>
  <radialGradient id="red" cx="70%" cy="58%" r="38%">
    <stop offset="0" stop-color="#681017" stop-opacity="0.35"/>
    <stop offset="0.48" stop-color="#42090d" stop-opacity="0.16"/>
    <stop offset="1" stop-color="#050505" stop-opacity="0"/>
  </radialGradient>
  <rect width="1200" height="630" fill="url(#red)"/>
  <g shape-rendering="crispEdges" opacity="0.72">
    <rect x="70" y="95" width="74" height="535" fill="#080809"/>
    <rect x="260" y="40" width="96" height="590" fill="#141416"/>
    <rect x="760" y="70" width="90" height="560" fill="#0b0b0c"/>
    <rect x="1030" y="115" width="70" height="515" fill="#080809"/>
    <path d="M590 130 L690 130 L730 420 L670 630 L560 630 L620 420 Z" fill="#171b22" opacity="0.56"/>
    <rect x="650" y="314" width="15" height="10" fill="#ededed"/>
    <rect x="700" y="314" width="15" height="10" fill="#ededed"/>
    <rect x="650" y="496" width="48" height="44" fill="#42090d"/>
    <rect x="662" y="507" width="24" height="14" fill="#8a1821"/>
  </g>
  <rect x="70" y="424" width="710" height="2" fill="#b08b3e" opacity="0.7"/>
  <text x="70" y="254" fill="#ededed" font-family="Bahnschrift Condensed, Arial Narrow, Arial, sans-serif" font-size="78" font-weight="900">HEROBRINE HORROR</text>
  <text x="70" y="344" fill="#ededed" font-family="Bahnschrift Condensed, Arial Narrow, Arial, sans-serif" font-size="78" font-weight="900">IMMERSION</text>
  <text x="74" y="468" fill="#b08b3e" font-family="Consolas, monospace" font-size="24" font-weight="700" letter-spacing="4">BETA CERRADA · MINECRAFT FABRIC</text>
  <text x="74" y="520" fill="#b9b9bd" font-family="Segoe UI, Arial, sans-serif" font-size="28" font-weight="700">Minecraft sigue siendo el mismo. Pero algo te observa.</text>
</svg>
